G04*
G04 #@! TF.GenerationSoftware,Altium Limited,Altium Designer,20.2.7 (254)*
G04*
G04 Layer_Color=8388736*
%FSLAX25Y25*%
%MOIN*%
G70*
G04*
G04 #@! TF.SameCoordinates,98EDEFB3-FBBC-4785-AB48-8CD72EF7211F*
G04*
G04*
G04 #@! TF.FilePolarity,Negative*
G04*
G01*
G75*
%ADD15R,0.05363X0.03969*%
%ADD16R,0.05363X0.04546*%
%ADD17R,0.06115X0.10654*%
%ADD18R,0.05363X0.04166*%
%ADD19R,0.01428X0.01788*%
%ADD20R,0.03963X0.05544*%
%ADD21R,0.02254X0.02423*%
%ADD22R,0.04921X0.04921*%
%ADD23C,0.04921*%
%ADD24C,0.07296*%
%ADD25O,0.20485X0.10642*%
%ADD26O,0.18517X0.09658*%
D15*
X51181Y265201D02*
D03*
Y272304D02*
D03*
D16*
X116142Y284944D02*
D03*
Y278048D02*
D03*
X51181Y288881D02*
D03*
Y281985D02*
D03*
D17*
X58368Y230315D02*
D03*
X47931D02*
D03*
D18*
X116142Y267232D02*
D03*
Y260327D02*
D03*
D19*
X76772Y291339D02*
D03*
Y288942D02*
D03*
D20*
X115948Y297244D02*
D03*
X108461D02*
D03*
D21*
X116142Y228346D02*
D03*
Y231721D02*
D03*
D22*
X157362Y248780D02*
D03*
X92402D02*
D03*
D23*
X157362Y258780D02*
D03*
Y268779D02*
D03*
Y278780D02*
D03*
X126102D02*
D03*
Y268779D02*
D03*
Y258780D02*
D03*
Y248780D02*
D03*
X92402Y258780D02*
D03*
Y268779D02*
D03*
Y278780D02*
D03*
X61142D02*
D03*
Y268779D02*
D03*
Y258780D02*
D03*
Y248780D02*
D03*
D24*
X212598Y287402D02*
D03*
Y228346D02*
D03*
D25*
X23622Y255906D02*
D03*
D26*
Y279528D02*
D03*
M02*
