G04*
G04 #@! TF.GenerationSoftware,Altium Limited,Altium Designer,20.2.7 (254)*
G04*
G04 Layer_Physical_Order=1*
G04 Layer_Color=255*
%FSLAX25Y25*%
%MOIN*%
G70*
G04*
G04 #@! TF.SameCoordinates,98EDEFB3-FBBC-4785-AB48-8CD72EF7211F*
G04*
G04*
G04 #@! TF.FilePolarity,Positive*
G04*
G01*
G75*
%ADD15R,0.05363X0.03969*%
%ADD16R,0.05363X0.04546*%
%ADD17R,0.06115X0.10654*%
%ADD18R,0.05363X0.04166*%
%ADD19R,0.01428X0.01788*%
%ADD20R,0.03963X0.05544*%
%ADD21R,0.02254X0.02423*%
%ADD22R,0.04921X0.04921*%
%ADD23C,0.04921*%
%ADD27C,0.01968*%
%ADD28C,0.06496*%
%ADD29O,0.19685X0.09843*%
%ADD30O,0.17717X0.08858*%
%ADD31C,0.02362*%
D15*
X51181Y265201D02*
D03*
Y272304D02*
D03*
D16*
X116142Y284944D02*
D03*
Y278048D02*
D03*
X51181Y288881D02*
D03*
Y281985D02*
D03*
D17*
X58368Y230315D02*
D03*
X47931D02*
D03*
D18*
X116142Y267232D02*
D03*
Y260327D02*
D03*
D19*
X76772Y291339D02*
D03*
Y288942D02*
D03*
D20*
X115948Y297244D02*
D03*
X108461D02*
D03*
D21*
X116142Y228346D02*
D03*
Y231721D02*
D03*
D22*
X157362Y248780D02*
D03*
X92402D02*
D03*
D23*
X157362Y258780D02*
D03*
Y268779D02*
D03*
Y278780D02*
D03*
X126102D02*
D03*
Y268779D02*
D03*
Y258780D02*
D03*
Y248780D02*
D03*
X92402Y258780D02*
D03*
Y268779D02*
D03*
Y278780D02*
D03*
X61142D02*
D03*
Y268779D02*
D03*
Y258780D02*
D03*
Y248780D02*
D03*
D27*
X76772Y291339D02*
Y297244D01*
X37402Y263779D02*
Y303150D01*
X29528Y255906D02*
X37402Y263779D01*
X23622Y255906D02*
X29528D01*
X23622Y236221D02*
Y255906D01*
X56271Y240158D02*
X59055D01*
X51181Y265201D02*
X51878D01*
X52878Y264201D01*
Y263504D02*
Y264201D01*
Y263504D02*
X55118Y261264D01*
Y241311D02*
X56271Y240158D01*
X55118Y241311D02*
Y261264D01*
X126102Y278780D02*
Y289252D01*
X115948Y296826D02*
Y297244D01*
Y296826D02*
X116945Y295829D01*
X119525D01*
X126102Y289252D01*
X157480Y278898D02*
Y285433D01*
X92520Y305118D02*
X137795D01*
X157362Y278780D02*
X157480Y278898D01*
X137795Y305118D02*
X157480Y285433D01*
X116142Y228346D02*
X127953D01*
X116142Y240158D02*
Y260327D01*
Y231721D02*
Y240158D01*
X125984D02*
X144854Y259027D01*
X157115D02*
X157362Y258780D01*
X144854Y259027D02*
X157115D01*
X116142Y240158D02*
X125984D01*
X126102Y267981D02*
Y268779D01*
X124016Y265894D02*
X126102Y267981D01*
X124016Y263779D02*
Y265894D01*
X116142Y260327D02*
X117240Y261425D01*
X121662D01*
X124016Y263779D01*
X116142Y272640D02*
Y278048D01*
Y267232D02*
Y272640D01*
X130737D01*
X126102Y258780D02*
X131890Y264567D01*
Y271487D01*
X130737Y272640D02*
X131890Y271487D01*
X100394Y246063D02*
Y288217D01*
X72835Y218504D02*
X100394Y246063D01*
X92402Y269322D02*
X94488Y271409D01*
X96240Y295874D02*
X97610Y297244D01*
X92402Y268779D02*
Y269322D01*
X100394Y288217D02*
X103229Y291052D01*
X94488Y271409D02*
Y273622D01*
X96240Y275374D01*
Y295874D01*
X41339Y218504D02*
X72835D01*
X116142Y284944D02*
Y291052D01*
X126732Y248780D02*
X156732Y278780D01*
X157362D01*
X126102Y248780D02*
X126732D01*
X103229Y291052D02*
X116142D01*
X97610Y297244D02*
X108461D01*
X23622Y236221D02*
X41339Y218504D01*
X39370Y232283D02*
X45963D01*
X47931Y230315D01*
X58368D02*
X59055Y231002D01*
Y240158D01*
X77677Y258780D02*
X92402D01*
X59055Y240158D02*
X77677Y258780D01*
X51181Y265201D02*
X57064D01*
X60643Y268779D01*
X61142D01*
X51181Y277144D02*
Y281985D01*
Y272304D02*
Y277144D01*
X60816Y273622D02*
X65776D01*
X61142Y258780D02*
X66929Y264567D01*
Y272469D01*
X65776Y273622D02*
X66929Y272469D01*
X51181Y277144D02*
X57294D01*
X60816Y273622D01*
X51181Y305118D02*
X92520D01*
X39370D02*
X51181D01*
Y288881D02*
Y305118D01*
X61142Y278780D02*
X71305Y288942D01*
X76772D01*
X61024Y278898D02*
X61142Y278780D01*
X157362Y268779D02*
X175984Y287402D01*
X212598D01*
X91772Y278780D02*
X92402D01*
X61772Y248780D02*
X91772Y278780D01*
X61142Y248780D02*
X61772D01*
X92402Y278780D02*
X92520Y278898D01*
Y305118D01*
X37402Y303150D02*
X39370Y305118D01*
D28*
X212598Y287402D02*
D03*
Y228346D02*
D03*
D29*
X23622Y255906D02*
D03*
D30*
Y279528D02*
D03*
D31*
X76772Y297244D02*
D03*
X127953Y228346D02*
D03*
X39370Y232283D02*
D03*
M02*
